<?xml version="1.0" standalone="no"?>
<!DOCTYPE svg PUBLIC "-//W3C//DTD SVG 20010904//EN"
 "http://www.w3.org/TR/2001/REC-SVG-20010904/DTD/svg10.dtd">
<svg version="1.0" xmlns="http://www.w3.org/2000/svg"
 width="700.000000pt" height="700.000000pt" viewBox="0 0 700.000000 700.000000"
 preserveAspectRatio="xMidYMid meet">
<metadata>
Created by potrace 1.11, written by Peter Selinger 2001-2013
</metadata>
<g transform="translate(0.000000,700.000000) scale(0.100000,-0.100000)"
fill="#000000" stroke="none">
<path d="M2377 6574 c-1 -1 -51 -4 -112 -7 -610 -33 -1175 -358 -1522 -877
-143 -215 -248 -472 -293 -720 -18 -97 -20 -108 -28 -198 -10 -98 -8 -2493 2
-2572 20 -165 45 -279 97 -435 49 -148 127 -309 214 -440 35 -54 61 -101 57
-104 -21 -16 -398 -266 -407 -271 -24 -12 -155 -101 -155 -105 0 -4 500 241
584 287 l38 21 102 -104 c121 -125 154 -154 270 -241 224 -168 536 -302 806
-347 36 -6 79 -13 95 -16 17 -3 66 -8 110 -12 105 -8 2421 -8 2505 1 116 11
188 21 245 33 17 4 35 8 40 9 83 16 275 82 388 133 69 31 278 148 287 160 3 4
37 29 75 57 95 66 308 279 390 389 166 223 297 506 349 757 3 12 8 34 11 48 9
40 24 153 31 227 8 88 8 2406 0 2498 -26 307 -122 615 -264 849 -23 37 -42 70
-42 73 0 2 -14 22 -32 44 -19 23 -28 43 -22 48 9 8 128 86 422 275 83 54 152
100 152 103 0 2 -3 2 -7 0 -12 -7 -280 -136 -348 -167 -33 -15 -111 -53 -173
-83 l-112 -55 -26 32 c-53 64 -201 210 -274 269 -231 187 -544 338 -820 394
-14 3 -29 6 -35 7 -46 12 -126 23 -225 32 -59 6 -2367 13 -2373 8z m3778 -775
c14 -17 24 -36 22 -42 -2 -6 -36 -31 -75 -56 -40 -25 -205 -131 -367 -236
-162 -104 -326 -210 -365 -235 -38 -25 -150 -96 -248 -159 -97 -63 -279 -179
-404 -258 l-227 -145 -68 41 c-81 48 -224 111 -342 151 -396 133 -821 146
-1064 30 -196 -93 -303 -263 -302 -480 2 -288 184 -420 820 -595 396 -109 569
-163 725 -227 384 -156 619 -375 709 -659 35 -110 46 -191 45 -334 -1 -344
-105 -607 -329 -830 -99 -98 -104 -103 -187 -157 -156 -104 -353 -187 -553
-233 -17 -4 -112 -22 -210 -40 -54 -10 -207 -18 -335 -19 -117 0 -317 11 -330
19 -3 2 -30 6 -60 9 -227 25 -556 131 -754 243 -82 47 -179 112 -184 125 -7
15 -32 8 -108 -27 -41 -19 -77 -35 -79 -35 -2 0 -92 -43 -201 -96 -110 -53
-217 -104 -239 -114 -22 -10 -163 -79 -313 -153 l-273 -135 -25 34 c-14 18
-23 37 -21 42 3 4 132 91 287 192 154 102 383 253 508 335 342 226 758 498
854 558 27 17 29 16 80 -17 44 -28 137 -74 233 -116 78 -34 309 -102 389 -114
21 -4 41 -8 45 -10 20 -12 160 -21 316 -21 152 1 193 4 265 23 268 69 429 234
469 481 29 182 -109 352 -386 474 -110 49 -434 154 -598 194 -43 11 -314 94
-380 116 -299 102 -511 222 -662 373 -196 196 -276 418 -268 739 3 146 6 171
25 245 5 19 11 46 14 60 13 74 91 244 157 342 53 79 204 230 289 290 165 116
434 227 635 263 17 2 41 7 55 10 225 47 544 50 825 9 241 -35 469 -102 660
-194 96 -46 238 -133 280 -170 19 -17 25 -16 170 49 143 65 290 132 530 246
61 28 153 72 205 96 52 24 142 67 200 96 58 28 108 52 112 52 3 1 18 -13 33
-30z m-2738 -1176 c53 -42 74 -83 75 -142 1 -192 -240 -262 -345 -101 -9 14
-19 48 -22 76 -9 71 22 136 84 176 41 26 53 29 108 26 51 -3 69 -9 100 -35z
m460 -140 c50 -40 72 -79 76 -135 7 -75 -30 -140 -98 -177 -66 -35 -155 -24
-212 26 -35 31 -63 104 -59 152 10 104 92 173 198 168 47 -3 65 -9 95 -34z
m462 -141 c45 -37 69 -76 75 -127 10 -77 -30 -152 -100 -186 -168 -81 -334 99
-242 262 50 89 188 115 267 51z m-1463 -1425 c65 -34 104 -96 104 -166 0 -149
-168 -239 -291 -155 -70 48 -99 148 -65 227 17 40 72 92 111 104 40 13 106 8
141 -10z m460 -136 c69 -32 114 -111 107 -189 -10 -108 -126 -188 -233 -160
-140 38 -186 209 -83 312 57 57 135 71 209 37z m466 -137 c67 -34 113 -118
103 -186 -4 -23 -13 -53 -20 -68 -29 -56 -101 -100 -163 -100 -164 0 -248 188
-140 313 49 57 152 76 220 41z"/>
</g>
</svg>
